<?xml version="1.0" encoding="UTF-8" standalone="yes"?>
<!DOCTYPE svg PUBLIC "-//W3C//DTD SVG 1.1//EN" "http://www.w3.org/Graphics/SVG/1.1/DTD/svg11.dtd">

<svg width="500" height="500" viewBox="0 0 500 500" xmlns="http://www.w3.org/2000/svg" xmlns:xlink="http://www.w3.org/1999/xlink" version="1.1" baseProfile="full">
    <g transform="scale(1,-1) translate(0,-500)">
        <path d="M 258.430100 1.125300 L 264.841900 1.368900 L 271.211500 1.772600 L 277.536900 2.334300 L 283.816200 3.052000 L 290.047300 3.924000 L 296.228400 4.948000 L 302.357400 6.122300 L 308.432500 7.444800 L 314.451500 8.913600 L 320.412700 10.526700 L 326.314000 12.282200 L 332.153400 14.178000 L 337.929000 16.212300 L 343.638800 18.383000 L 349.280900 20.688200 L 360.354000 25.694200 L 371.132500 31.214700 L 381.600900 37.233800 L 391.743300 43.736000 L 401.544000 50.705500 L 410.987400 58.126500 L 420.057800 65.983400 L 428.739300 74.260600 L 437.016500 82.942100 L 444.873400 92.012500 L 452.294400 101.455900 L 459.263900 111.256600 L 465.766100 121.399000 L 471.785200 131.867400 L 477.305700 142.645900 L 482.311700 153.719000 L 484.616900 159.361100 L 486.787600 165.070900 L 488.821900 170.846500 L 490.717700 176.685900 L 492.473200 182.587200 L 494.086300 188.548400 L 495.555100 194.567400 L 496.877600 200.642500 L 498.051900 206.771500 L 499.075900 212.952600 L 499.947900 219.183700 L 500.665600 225.463000 L 501.227300 231.788400 L 501.631000 238.158000 L 501.874600 244.569800 L 501.956300 251.021800 L 501.874600 257.473800 L 501.631000 263.885600 L 501.227300 270.255200 L 500.665600 276.580600 L 499.947900 282.859900 L 499.075900 289.091000 L 498.051900 295.272100 L 496.877600 301.401100 L 495.555100 307.476200 L 494.086300 313.495200 L 492.473200 319.456400 L 490.717700 325.357700 L 488.821900 331.197100 L 486.787600 336.972700 L 484.616900 342.682500 L 482.311700 348.324600 L 477.305700 359.397700 L 471.785200 370.176200 L 465.766100 380.644600 L 459.263900 390.787000 L 452.294400 400.587700 L 444.873400 410.031100 L 437.016500 419.101500 L 428.739300 427.783000 L 420.057800 436.060200 L 410.987400 443.917100 L 401.544000 451.338100 L 391.743300 458.307600 L 381.600900 464.809800 L 371.132500 470.828900 L 360.354000 476.349400 L 349.280900 481.355400 L 343.638800 483.660600 L 337.929000 485.831300 L 332.153400 487.865600 L 326.314000 489.761400 L 320.412700 491.516900 L 314.451500 493.130000 L 308.432500 494.598800 L 302.357400 495.921300 L 296.228400 497.095600 L 290.047300 498.119600 L 283.816200 498.991600 L 277.536900 499.709300 L 271.211500 500.271000 L 264.841900 500.674700 L 258.430100 500.918300 L 251.978100 500.999900 L 245.526100 500.918300 L 239.114300 500.674700 L 232.744700 500.271000 L 226.419300 499.709300 L 220.140000 498.991600 L 213.908900 498.119600 L 207.727800 497.095600 L 201.598800 495.921300 L 195.523700 494.598800 L 189.504700 493.130000 L 183.543500 491.516900 L 177.642200 489.761400 L 171.802800 487.865600 L 166.027200 485.831300 L 160.317400 483.660600 L 154.675300 481.355400 L 143.602200 476.349400 L 132.823700 470.828900 L 122.355300 464.809800 L 112.212900 458.307600 L 102.412200 451.338100 L 92.968800 443.917100 L 83.898400 436.060200 L 75.216900 427.783000 L 66.939700 419.101500 L 59.082800 410.031100 L 51.661800 400.587700 L 44.692300 390.787000 L 38.190100 380.644600 L 32.171000 370.176200 L 26.650500 359.397700 L 21.644500 348.324600 L 19.339300 342.682500 L 17.168600 336.972700 L 15.134300 331.197100 L 13.238500 325.357700 L 11.483000 319.456400 L 9.869900 313.495200 L 8.401100 307.476200 L 7.078600 301.401100 L 5.904300 295.272100 L 4.880300 289.091000 L 4.008300 282.859900 L 3.290600 276.580600 L 2.728900 270.255200 L 2.325200 263.885600 L 2.081600 257.473800 L 2.000000 251.021800 L 2.081600 244.569800 L 2.325200 238.158000 L 2.728900 231.788400 L 3.290600 225.463000 L 4.008300 219.183700 L 4.880300 212.952600 L 5.904300 206.771500 L 7.078600 200.642500 L 8.401100 194.567400 L 9.869900 188.548400 L 11.483000 182.587200 L 13.238500 176.685900 L 15.134300 170.846500 L 17.168600 165.070900 L 19.339300 159.361100 L 21.644500 153.719000 L 26.650500 142.645900 L 32.171000 131.867400 L 38.190100 121.399000 L 44.692300 111.256600 L 51.661800 101.455900 L 59.082800 92.012500 L 66.939700 82.942100 L 75.216900 74.260600 L 83.898400 65.983400 L 92.968800 58.126500 L 102.412200 50.705500 L 112.212900 43.736000 L 122.355300 37.233800 L 132.823700 31.214700 L 143.602200 25.694200 L 154.675300 20.688200 L 160.317400 18.383000 L 166.027200 16.212300 L 171.802800 14.178000 L 177.642200 12.282200 L 183.543500 10.526700 L 189.504700 8.913600 L 195.523700 7.444800 L 201.598800 6.122300 L 207.727800 4.948000 L 213.908900 3.924000 L 220.140000 3.052000 L 226.419300 2.334300 L 232.744700 1.772600 L 239.114300 1.368900 L 245.526100 1.125300 L 251.978100 1.043600 Z M 318.497300 180.869200 L 318.497300 300.492000 L 294.461000 300.492000 L 294.461000 317.541000 L 337.502800 317.541000 L 337.502800 302.168900 L 338.665600 303.103500 L 341.050000 304.920200 L 343.513000 306.667000 L 346.054600 308.344000 L 348.674900 309.951100 L 351.373700 311.488300 L 354.151200 312.955600 L 357.007300 314.353100 L 358.464800 315.025600 L 359.286900 315.403900 L 360.937600 316.124500 L 362.597100 316.797000 L 364.265300 317.421500 L 365.942300 317.997900 L 367.628000 318.526400 L 369.322400 319.006700 L 371.025600 319.439100 L 372.737400 319.823400 L 374.458100 320.159600 L 376.187400 320.447900 L 377.925500 320.688100 L 379.672400 320.880200 L 381.427900 321.024300 L 383.192200 321.120400 L 384.965200 321.168400 L 385.855000 321.174400 L 386.879900 321.164600 L 388.895300 321.086000 L 390.864900 320.928800 L 392.788600 320.693000 L 394.666400 320.378500 L 396.498400 319.985500 L 398.284500 319.513900 L 400.024800 318.963600 L 401.719200 318.334700 L 403.367800 317.627300 L 404.970500 316.841200 L 406.527400 315.976500 L 408.038400 315.033200 L 409.503500 314.011300 L 410.922800 312.910800 L 412.296300 311.731700 L 412.965800 311.112700 L 413.602000 310.477300 L 414.813900 309.167200 L 415.945000 307.804600 L 416.995300 306.389700 L 417.964800 304.922400 L 418.853400 303.402600 L 419.661400 301.830500 L 420.388500 300.205900 L 421.034800 298.529000 L 421.600300 296.799600 L 422.085100 295.017900 L 422.489000 293.183700 L 422.812200 291.297100 L 423.054600 289.358100 L 423.216200 287.366800 L 423.296900 285.323000 L 423.307000 284.281400 L 423.307000 197.918200 L 444.269000 197.918200 L 444.269000 180.869200 L 404.301500 180.869200 L 404.301500 282.604500 L 404.281900 283.844200 L 404.124700 286.215500 L 403.810300 288.442700 L 403.338600 290.525800 L 402.709800 292.464800 L 401.923700 294.259600 L 400.980400 295.910400 L 399.879900 297.417000 L 399.270700 298.116300 L 398.951100 298.451600 L 398.280700 299.090300 L 397.568900 299.686400 L 396.815600 300.239900 L 396.020800 300.750900 L 395.184500 301.219200 L 394.306700 301.645000 L 393.387400 302.028200 L 392.426700 302.368900 L 391.424400 302.666900 L 390.380700 302.922400 L 389.295500 303.135300 L 388.168800 303.305600 L 387.000600 303.433300 L 385.790900 303.518500 L 384.539700 303.561100 L 383.898600 303.566400 L 383.232100 303.560100 L 381.882600 303.509900 L 380.511400 303.409500 L 379.118300 303.258800 L 377.703400 303.057900 L 376.266600 302.806800 L 374.808000 302.505500 L 373.327500 302.153900 L 371.825300 301.752200 L 370.301200 301.300200 L 368.755200 300.798000 L 367.187400 300.245500 L 365.597800 299.642900 L 363.986400 298.990000 L 362.353100 298.286900 L 360.698000 297.533600 L 359.862200 297.138100 L 359.062000 296.751000 L 357.481100 295.960600 L 355.926400 295.148300 L 354.397900 294.314200 L 352.895700 293.458300 L 351.419600 292.580500 L 349.969700 291.680900 L 348.546100 290.759400 L 347.844100 290.290500 L 347.148600 289.816100 L 345.777300 288.851000 L 344.432300 287.864100 L 343.113400 286.855300 L 341.820800 285.824600 L 340.554300 284.772200 L 339.314100 283.697900 L 338.100000 282.601700 L 337.502800 282.045500 L 337.502800 197.918200 L 359.023800 197.918200 L 359.023800 180.869200 Z M 83.723600 180.869200 L 83.723600 300.492000 L 59.687200 300.492000 L 59.687200 317.541000 L 102.729100 317.541000 L 102.729100 302.448400 L 103.920200 303.414600 L 106.322100 305.275000 L 108.750200 307.039300 L 111.204500 308.707500 L 113.685000 310.279700 L 116.191700 311.755800 L 118.724600 313.135700 L 121.283700 314.419700 L 122.573000 315.025600 L 123.360800 315.403900 L 124.946000 316.124500 L 126.544300 316.797000 L 128.155800 317.421500 L 129.780300 317.997900 L 131.418000 318.526400 L 133.068800 319.006700 L 134.732600 319.439100 L 136.409600 319.823400 L 138.099600 320.159600 L 139.802800 320.447900 L 141.519000 320.688100 L 143.248400 320.880200 L 144.990900 321.024300 L 146.746400 321.120400 L 148.515100 321.168400 L 149.404300 321.174400 L 150.255600 321.168400 L 151.930400 321.120400 L 153.568100 321.024300 L 155.168600 320.880200 L 156.732000 320.688100 L 158.258300 320.447900 L 159.747500 320.159600 L 161.199500 319.823400 L 162.614400 319.439100 L 163.992300 319.006700 L 165.332900 318.526400 L 166.636500 317.997900 L 167.903000 317.421500 L 169.132300 316.797000 L 170.324500 316.124500 L 171.479600 315.403900 L 172.043200 315.025600 L 172.529100 314.705700 L 173.481100 314.033200 L 174.406900 313.317000 L 175.306500 312.557100 L 176.179900 311.753600 L 177.027100 310.906400 L 177.848200 310.015500 L 178.643000 309.080900 L 179.411600 308.102700 L 180.154000 307.080800 L 180.870200 306.015200 L 181.560200 304.906000 L 182.224000 303.753100 L 182.861600 302.556500 L 183.472900 301.316300 L 184.058100 300.032300 L 184.340900 299.374000 L 184.835500 299.860900 L 185.857400 300.821700 L 186.922900 301.765000 L 188.032200 302.690800 L 189.185100 303.599200 L 190.381700 304.490000 L 191.621900 305.363500 L 192.905800 306.219400 L 193.564200 306.640800 L 194.909200 307.479300 L 197.704100 309.156300 L 200.638800 310.833200 L 203.713200 312.510200 L 205.302800 313.348600 L 206.227600 313.830100 L 208.070500 314.747200 L 209.904600 315.603100 L 211.730100 316.397900 L 213.546800 317.131600 L 215.354700 317.804100 L 217.154000 318.415500 L 218.944500 318.965800 L 220.726200 319.454900 L 222.499300 319.882900 L 224.263600 320.249700 L 226.019100 320.555400 L 227.766000 320.800000 L 229.504100 320.983400 L 231.233400 321.105700 L 232.954000 321.166800 L 233.811100 321.174400 L 234.870600 321.164600 L 236.953700 321.086000 L 238.988800 320.928800 L 240.975800 320.693000 L 242.914800 320.378500 L 244.805700 319.985500 L 246.648600 319.513900 L 248.443500 318.963600 L 250.190300 318.334700 L 251.889100 317.627300 L 253.539900 316.841200 L 255.142600 315.976500 L 256.697300 315.033200 L 258.203900 314.011300 L 259.662500 312.910800 L 261.073100 311.731700 L 261.760300 311.112700 L 262.396600 310.477300 L 263.608400 309.167200 L 264.739500 307.804600 L 265.789800 306.389700 L 266.759300 304.922400 L 267.648000 303.402600 L 268.455900 301.830500 L 269.183000 300.205900 L 269.829300 298.529000 L 270.394900 296.799600 L 270.879600 295.017900 L 271.283600 293.183700 L 271.606700 291.297100 L 271.849100 289.358100 L 272.010700 287.366800 L 272.091500 285.323000 L 272.101600 284.281400 L 272.101600 197.918200 L 292.784000 197.918200 L 292.784000 180.869200 L 253.096100 180.869200 L 253.096100 282.604500 L 253.077000 283.810900 L 252.924100 286.125400 L 252.618400 288.308900 L 252.159900 290.361500 L 251.548500 292.283000 L 250.784300 294.073500 L 249.867200 295.733000 L 248.797200 297.261400 L 248.205000 297.976600 L 247.894200 298.320500 L 247.242400 298.975500 L 246.550200 299.586900 L 245.817700 300.154600 L 245.044700 300.678700 L 244.231300 301.159100 L 243.377600 301.595800 L 242.483400 301.988800 L 241.548900 302.338200 L 240.573900 302.643900 L 239.558600 302.905900 L 238.502800 303.124200 L 237.406700 303.298900 L 236.270200 303.429900 L 235.093200 303.517300 L 233.875900 303.560900 L 233.252100 303.566400 L 232.518400 303.560100 L 231.051100 303.509900 L 229.583800 303.409500 L 228.116400 303.258800 L 226.649100 303.057900 L 225.181800 302.806800 L 223.714400 302.505500 L 222.247100 302.153900 L 220.779700 301.752200 L 219.312400 301.300200 L 217.845100 300.798000 L 216.377700 300.245500 L 214.910400 299.642900 L 213.443100 298.990000 L 211.975700 298.286900 L 210.508400 297.533600 L 209.774700 297.138100 L 209.008800 296.749900 L 207.493500 295.950800 L 205.999900 295.121000 L 204.528200 294.260700 L 203.078400 293.369800 L 201.650300 292.448400 L 200.244100 291.496400 L 198.859800 290.513800 L 198.175800 290.011000 L 196.815400 288.982600 L 194.107900 286.834000 L 191.417700 284.563100 L 188.745100 282.169900 L 187.415300 280.927500 L 187.415300 180.869200 L 168.409800 180.869200 L 168.409800 282.604500 L 168.404900 283.262800 L 168.365600 284.546700 L 168.287000 285.787000 L 168.169100 286.983500 L 168.011900 288.136400 L 167.815400 289.245700 L 167.579500 290.311200 L 167.304400 291.333100 L 166.990000 292.311400 L 166.636200 293.245900 L 166.243200 294.136800 L 165.810900 294.984000 L 165.339200 295.787600 L 164.828300 296.547400 L 164.278000 297.263600 L 163.688500 297.936200 L 163.379000 298.256000 L 163.076500 298.582800 L 162.438900 299.205100 L 161.757700 299.785900 L 161.032700 300.325200 L 160.264100 300.823100 L 159.451900 301.279400 L 158.595900 301.694300 L 157.696300 302.067700 L 156.753000 302.399600 L 155.766100 302.690000 L 154.735400 302.938900 L 153.661100 303.146300 L 152.543200 303.312300 L 151.381500 303.436800 L 150.176200 303.519700 L 148.927200 303.561200 L 148.286400 303.566400 L 147.654200 303.560100 L 146.370300 303.509900 L 145.060200 303.409500 L 143.723900 303.258800 L 142.361300 303.057900 L 140.972600 302.806800 L 139.557700 302.505500 L 138.116500 302.153900 L 136.649200 301.752200 L 135.155700 301.300200 L 133.635900 300.798000 L 132.090000 300.245500 L 130.517800 299.642900 L 128.919500 298.990000 L 127.294900 298.286900 L 125.644200 297.533600 L 124.809000 297.138100 L 123.281600 296.358600 L 120.285800 294.734000 L 117.368600 293.022100 L 114.530000 291.222900 L 111.770000 289.336300 L 109.088600 287.362400 L 106.485800 285.301100 L 103.961700 283.152500 L 102.729100 282.045500 L 102.729100 197.918200 L 124.529500 197.918200 L 124.529500 180.869200 Z" transform="scale(1.000000,1.000000) translate(-2.000000,-1.000000)" fill="#000000" opacity="1.000000"></path>
    </g>
</svg>